{"glyphs":{"0":{"ha":696,"x_min":0,"x_max":0,"o":"m 451 574 l 246 281 l 246 92 l 274 67 l 424 67 l 451 92 m 451 663 l 451 851 l 424 876 l 274 876 l 246 851 l 246 369 m 592 121 l 472 0 l 225 0 l 106 121 l 106 822 l 225 943 l 472 943 l 592 822 "},"1":{"ha":694,"x_min":0,"x_max":0,"o":"m 638 0 l 75 0 l 75 72 l 261 72 l 283 97 l 283 824 l 56 751 l 56 824 l 429 957 l 429 97 l 451 72 l 638 72 "},"2":{"ha":694,"x_min":0,"x_max":0,"o":"m 622 0 l 93 0 l 93 118 l 468 653 l 468 851 l 440 876 l 268 876 l 240 851 l 240 719 l 100 719 l 100 822 l 219 943 l 489 943 l 608 822 l 608 675 l 206 118 l 622 118 "},"3":{"ha":694,"x_min":0,"x_max":0,"o":"m 504 492 l 590 404 l 590 121 l 471 0 l 224 0 l 104 121 l 104 213 l 244 213 l 244 92 l 272 67 l 422 67 l 450 92 l 450 433 l 422 458 l 207 458 l 207 525 l 422 525 l 450 550 l 450 851 l 422 876 l 272 876 l 244 851 l 244 744 l 104 744 l 104 822 l 224 943 l 471 943 l 590 822 l 590 579 "},"4":{"ha":694,"x_min":0,"x_max":0,"o":"m 399 806 l 121 381 l 399 381 m 544 282 l 544 0 l 399 0 l 399 282 l 35 282 l 35 381 l 399 943 l 544 943 l 544 381 l 683 381 l 683 282 "},"5":{"ha":694,"x_min":0,"x_max":0,"o":"m 471 0 l 224 0 l 104 121 l 104 213 l 244 213 l 244 92 l 272 67 l 422 67 l 450 92 l 450 433 l 422 458 l 136 458 l 136 943 l 568 943 l 568 825 l 203 825 l 203 546 l 224 525 l 471 525 l 590 404 l 590 121 "},"6":{"ha":694,"x_min":0,"x_max":0,"o":"m 239 89 l 267 64 l 417 64 l 444 89 l 444 449 l 417 474 l 239 435 m 444 851 l 417 876 l 267 876 l 239 851 l 239 493 l 465 547 l 585 419 l 585 118 l 465 -3 l 218 -3 l 99 118 l 99 822 l 218 943 l 465 943 l 585 822 l 585 731 l 444 731 "},"7":{"ha":694,"x_min":0,"x_max":0,"o":"m 622 825 l 247 74 l 247 0 l 107 0 l 107 76 l 494 825 l 72 825 l 72 943 l 622 943 "},"8":{"ha":694,"x_min":0,"x_max":0,"o":"m 422 451 l 272 451 l 244 426 l 244 92 l 272 67 l 422 67 l 450 92 l 450 426 m 272 518 l 422 518 l 450 543 l 450 851 l 422 876 l 272 876 l 244 851 l 244 543 m 504 485 l 590 397 l 590 121 l 471 0 l 224 0 l 104 121 l 104 397 l 190 485 l 104 572 l 104 822 l 224 943 l 471 943 l 590 822 l 590 572 "},"9":{"ha":694,"x_min":0,"x_max":0,"o":"m 596 118 l 476 -3 l 229 -3 l 110 118 l 110 210 l 250 210 l 250 89 l 278 64 l 428 64 l 456 89 l 456 447 l 229 393 l 110 521 l 110 822 l 229 943 l 476 943 l 596 822 m 428 876 l 278 876 l 250 851 l 250 492 l 278 467 l 456 506 l 456 851 "},"\r":{"ha":0,"x_min":0,"x_max":0,"o":""}," ":{"ha":694,"x_min":0,"x_max":0,"o":""},"!":{"ha":694,"x_min":0,"x_max":0,"o":"m 447 0 l 247 0 l 247 190 l 447 190 m 447 954 l 400 278 l 294 278 l 247 954 l 247 1097 l 447 1097 "},"\"":{"ha":694,"x_min":0,"x_max":0,"o":"m 288 986 l 274 713 l 169 713 l 156 988 l 156 1097 l 288 1097 m 535 986 l 521 713 l 417 713 l 403 988 l 403 1097 l 535 1097 "},"#":{"ha":694,"x_min":0,"x_max":0,"o":"m 586 381 l 586 250 l 457 250 l 418 0 l 347 0 l 386 250 l 254 250 l 215 0 l 144 0 l 183 250 l 96 250 l 96 381 l 204 381 l 235 575 l 126 575 l 126 706 l 254 706 l 301 1006 l 372 1006 l 325 706 l 457 706 l 504 1006 l 575 1006 l 528 706 l 617 706 l 617 575 l 508 575 l 478 381 m 275 381 l 407 381 l 438 575 l 306 575 "},"$":{"ha":694,"x_min":0,"x_max":0,"o":"m 622 121 l 501 0 l 385 0 l 385 -149 l 332 -149 l 332 0 l 219 0 l 99 121 l 99 204 l 239 204 l 239 92 l 268 67 l 332 67 l 332 433 l 107 707 l 107 851 l 228 972 l 332 972 l 332 1121 l 385 1121 l 385 972 l 493 972 l 614 851 l 614 767 l 474 767 l 474 881 l 444 906 l 385 906 l 385 589 l 600 317 l 622 292 m 385 368 l 385 67 l 453 67 l 482 92 l 482 250 m 332 906 l 276 906 l 247 881 l 247 764 l 332 657 "},"%":{"ha":694,"x_min":0,"x_max":0,"o":"m 554 286 l 454 143 l 454 47 l 468 35 l 539 35 l 554 47 m 261 418 l 318 418 l 156 0 l 51 0 m 554 338 l 554 433 l 539 447 l 468 447 l 454 433 l 454 194 m 628 61 l 567 0 l 442 0 l 381 61 l 381 419 l 442 481 l 567 481 l 628 419 m 214 750 l 111 607 l 111 511 l 125 499 l 199 499 l 214 511 m 214 801 l 214 897 l 199 911 l 125 911 l 111 897 l 111 658 m 406 526 l 349 526 l 511 944 l 615 944 m 285 525 l 224 464 l 99 464 l 38 525 l 38 883 l 99 944 l 224 944 l 285 883 "},"&":{"ha":694,"x_min":0,"x_max":0,"o":"m 551 0 l 200 0 l 71 131 l 71 550 l 168 641 l 87 717 l 87 976 l 216 1097 l 481 1097 l 481 1014 l 265 1014 l 237 989 l 237 697 l 264 671 l 460 671 l 460 587 l 249 587 l 221 562 l 221 108 l 249 83 l 447 83 l 447 398 l 364 398 l 364 471 l 658 471 l 658 398 l 566 398 l 566 23 "},"'":{"ha":694,"x_min":0,"x_max":0,"o":"m 458 986 l 444 713 l 340 713 l 326 988 l 326 1097 l 458 1097 "},"(":{"ha":694,"x_min":0,"x_max":0,"o":"m 518 -236 b 90 407 282 -236 90 58 b 518 1050 90 756 282 1050 l 518 994 b 146 407 315 994 146 736 b 518 -181 146 78 315 -181 "},")":{"ha":694,"x_min":0,"x_max":0,"o":"m 144 -181 b 517 407 347 -181 517 78 b 144 994 517 736 347 994 l 144 1050 b 572 407 381 1050 572 756 b 144 -236 572 58 381 -236 "},"*":{"ha":694,"x_min":0,"x_max":0,"o":"m 401 986 l 388 713 l 283 713 l 269 988 l 269 1097 l 401 1097 "},"+":{"ha":694,"x_min":0,"x_max":0,"o":"m 386 425 l 386 185 l 310 185 l 310 425 l 69 425 l 69 501 l 308 501 l 308 740 l 385 740 l 385 501 l 625 501 l 625 425 "},",":{"ha":694,"x_min":0,"x_max":0,"o":"m 447 21 l 444 18 b 261 -203 435 -76 394 -203 l 261 -147 b 386 0 342 -147 375 -72 l 268 0 l 247 21 l 247 169 l 268 190 l 426 190 l 447 169 "},"-":{"ha":694,"x_min":0,"x_max":0,"o":"m 567 353 l 128 353 l 128 464 l 567 464 "},".":{"ha":694,"x_min":0,"x_max":0,"o":"m 447 0 l 247 0 l 247 190 l 447 190 "},"/":{"ha":694,"x_min":0,"x_max":0,"o":"m 22 -115 l 622 1110 l 671 1082 l 71 -143 "},":":{"ha":694,"x_min":0,"x_max":0,"o":"m 447 0 l 247 0 l 247 190 l 447 190 m 447 525 l 247 525 l 247 715 l 447 715 "},";":{"ha":694,"x_min":0,"x_max":0,"o":"m 447 169 l 447 21 l 444 18 b 261 -203 435 -76 394 -203 l 261 -147 b 386 0 342 -147 375 -72 l 268 0 l 247 21 l 247 169 l 268 190 l 426 190 m 447 525 l 247 525 l 247 715 l 447 715 "},"<":{"ha":694,"x_min":0,"x_max":0,"o":"m 610 110 l 72 431 l 72 438 l 610 760 l 610 676 l 213 446 l 213 419 l 610 190 "},">":{"ha":694,"x_min":0,"x_max":0,"o":"m 108 676 l 108 760 l 646 438 l 646 431 l 108 110 l 108 190 l 506 419 l 506 446 "},"?":{"ha":694,"x_min":0,"x_max":0,"o":"m 453 0 l 253 0 l 253 190 l 453 190 m 431 540 l 644 739 l 644 954 l 511 1097 l 181 1097 l 47 954 l 47 863 l 201 863 l 201 986 l 233 1014 l 458 1014 l 490 986 l 490 801 l 276 597 l 276 408 l 431 408 "},"A":{"ha":694,"x_min":0,"x_max":0,"o":"m 676 0 l 532 0 l 532 67 l 468 390 l 203 390 l 139 67 l 139 0 l 8 0 l 8 67 l 210 1097 l 474 1097 l 676 67 m 344 1017 l 326 1017 l 219 474 l 451 474 "},"B":{"ha":694,"x_min":0,"x_max":0,"o":"m 458 83 l 486 108 l 486 489 l 458 514 l 218 514 l 218 114 l 246 83 m 425 593 l 453 618 l 453 989 l 425 1014 l 218 1014 l 218 593 m 636 121 l 507 0 l 68 0 l 68 1097 l 474 1097 l 603 976 l 603 635 l 532 569 l 636 472 "},"C":{"ha":694,"x_min":0,"x_max":0,"o":"m 221 989 l 221 108 l 249 83 l 538 83 l 538 0 l 200 0 l 71 121 l 71 976 l 200 1097 l 538 1097 l 538 1014 l 249 1014 "},"D":{"ha":694,"x_min":0,"x_max":0,"o":"m 444 83 l 472 108 l 472 989 l 444 1014 l 221 1014 l 221 114 l 249 83 m 493 0 l 71 0 l 71 1097 l 493 1097 l 622 976 l 622 121 "},"E":{"ha":694,"x_min":0,"x_max":0,"o":"m 78 0 l 78 1097 l 594 1097 l 594 1014 l 228 1014 l 228 606 l 560 606 l 560 522 l 228 522 l 228 114 l 256 83 l 608 83 l 608 0 "},"F":{"ha":694,"x_min":0,"x_max":0,"o":"m 228 606 l 560 606 l 560 522 l 228 522 l 228 0 l 78 0 l 78 1097 l 594 1097 l 594 1014 l 228 1014 "},"G":{"ha":694,"x_min":0,"x_max":0,"o":"m 594 0 l 200 0 l 71 121 l 71 976 l 200 1097 l 538 1097 l 538 1014 l 249 1014 l 221 989 l 221 108 l 249 83 l 444 83 l 444 404 l 594 404 "},"H":{"ha":694,"x_min":0,"x_max":0,"o":"m 622 0 l 472 0 l 472 522 l 217 522 l 217 0 l 67 0 l 67 1097 l 217 1097 l 217 606 l 472 606 l 472 1097 l 622 1097 "},"I":{"ha":694,"x_min":0,"x_max":0,"o":"m 450 83 l 589 83 l 589 0 l 106 0 l 106 83 l 244 83 l 272 114 l 272 983 l 244 1014 l 106 1014 l 106 1097 l 589 1097 l 589 1014 l 450 1014 l 422 983 l 422 114 "},"J":{"ha":694,"x_min":0,"x_max":0,"o":"m 460 0 l 147 0 l 18 121 l 18 257 l 168 257 l 168 108 l 196 83 l 411 83 l 439 108 l 439 983 l 411 1014 l 160 1014 l 160 1097 l 589 1097 l 589 121 "},"K":{"ha":694,"x_min":0,"x_max":0,"o":"m 239 463 l 207 463 l 207 0 l 57 0 l 57 1097 l 207 1097 l 207 617 l 228 617 l 468 997 l 468 1097 l 618 1097 l 618 957 l 356 556 l 356 550 l 646 128 l 646 0 l 496 0 l 496 82 "},"L":{"ha":694,"x_min":0,"x_max":0,"o":"m 617 0 l 100 0 l 100 1097 l 250 1097 l 250 97 l 617 97 "},"M":{"ha":694,"x_min":0,"x_max":0,"o":"m 524 0 l 524 601 l 531 722 l 515 722 l 386 399 l 306 399 l 176 724 l 161 724 l 168 601 l 168 0 l 18 0 l 18 1097 l 147 1097 l 336 611 l 356 611 l 544 1097 l 674 1097 l 674 0 "},"N":{"ha":694,"x_min":0,"x_max":0,"o":"m 489 0 l 250 664 l 211 781 l 204 781 l 210 649 l 210 0 l 60 0 l 60 1097 l 210 1097 l 449 414 l 488 292 l 494 292 l 489 428 l 489 1097 l 639 1097 l 639 0 "},"O":{"ha":694,"x_min":0,"x_max":0,"o":"m 249 1014 l 221 989 l 221 108 l 249 83 l 444 83 l 472 108 l 472 989 l 444 1014 m 493 0 l 200 0 l 71 121 l 71 976 l 200 1097 l 493 1097 l 622 976 l 622 121 "},"P":{"ha":694,"x_min":0,"x_max":0,"o":"m 468 1014 l 207 1014 l 207 511 l 468 511 l 496 536 l 496 989 m 646 553 l 517 432 l 207 432 l 207 0 l 57 0 l 57 1097 l 517 1097 l 646 976 "},"Q":{"ha":694,"x_min":0,"x_max":0,"o":"m 444 1014 l 249 1014 l 221 989 l 221 108 l 249 83 l 444 83 l 472 108 l 472 989 m 417 0 l 568 -186 l 403 -186 l 314 0 l 200 0 l 71 121 l 71 976 l 200 1097 l 493 1097 l 622 976 l 622 121 l 493 0 "},"R":{"ha":694,"x_min":0,"x_max":0,"o":"m 642 0 l 482 0 l 482 82 l 376 467 l 215 467 l 215 0 l 65 0 l 65 1097 l 479 1097 l 608 976 l 608 588 l 488 475 l 642 94 m 431 546 l 458 571 l 458 989 l 431 1014 l 215 1014 l 215 546 "},"S":{"ha":694,"x_min":0,"x_max":0,"o":"m 436 1014 l 272 1014 l 240 986 l 240 824 l 650 358 l 650 143 l 517 0 l 186 0 l 53 143 l 53 235 l 207 235 l 207 111 l 239 83 l 464 83 l 496 111 l 496 296 l 86 767 l 86 954 l 219 1097 l 490 1097 l 622 954 l 622 861 l 468 861 l 468 986 "},"T":{"ha":694,"x_min":0,"x_max":0,"o":"m 411 1014 l 411 0 l 272 0 l 272 1014 l 49 1014 l 49 1097 l 633 1097 l 633 1014 "},"U":{"ha":694,"x_min":0,"x_max":0,"o":"m 493 0 l 200 0 l 71 121 l 71 1097 l 221 1097 l 221 108 l 249 83 l 444 83 l 472 108 l 472 1097 l 622 1097 l 622 121 "},"V":{"ha":694,"x_min":0,"x_max":0,"o":"m 681 1031 l 478 0 l 215 0 l 13 1031 l 13 1097 l 157 1097 l 157 1031 l 346 71 l 361 71 l 550 1031 l 550 1097 l 681 1097 "},"W":{"ha":694,"x_min":0,"x_max":0,"o":"m 361 483 l 331 483 l 229 0 l 114 0 l 18 1097 l 168 1097 l 224 401 l 239 401 l 306 788 l 386 788 l 453 401 l 468 401 l 524 1097 l 674 1097 l 578 0 l 463 0 "},"X":{"ha":694,"x_min":0,"x_max":0,"o":"m 151 0 l 15 0 l 15 85 l 256 540 l 256 572 l 44 997 l 44 1097 l 183 1097 l 183 997 l 347 689 l 369 689 l 513 997 l 513 1097 l 650 1097 l 650 997 l 438 568 l 438 532 l 679 85 l 679 0 l 540 0 l 540 82 l 342 431 l 325 431 l 151 82 "},"Y":{"ha":694,"x_min":0,"x_max":0,"o":"m 421 0 l 271 0 l 271 454 l 15 1031 l 15 1097 l 160 1097 l 160 1031 l 340 597 l 372 597 l 553 1031 l 553 1097 l 678 1097 l 678 1031 l 421 440 "},"Z":{"ha":694,"x_min":0,"x_max":0,"o":"m 650 0 l 31 0 l 31 83 l 467 1014 l 76 1014 l 76 1097 l 638 1097 l 638 1014 l 211 83 l 650 83 "},"\\":{"ha":694,"x_min":0,"x_max":0,"o":"m 22 1082 l 71 1110 l 671 -115 l 622 -143 "},"^":{"ha":694,"x_min":0,"x_max":0,"o":"m 125 588 l 51 588 l 343 1075 l 350 1075 l 642 588 l 568 588 l 360 949 l 335 949 "},"_":{"ha":694,"x_min":0,"x_max":0,"o":"m 692 -76 l 0 -76 l 0 0 l 692 0 "},"`":{"ha":694,"x_min":0,"x_max":0,"o":"m 394 924 l 343 924 l 214 1138 l 239 1158 l 319 1158 l 404 933 "},"a":{"ha":694,"x_min":0,"x_max":0,"o":"m 447 372 l 247 372 l 206 235 l 206 204 l 247 67 l 447 67 m 586 0 l 183 0 l 75 194 l 75 244 l 183 439 l 447 439 l 447 732 l 425 757 l 213 757 l 213 824 l 481 824 l 586 714 "},"b":{"ha":694,"x_min":0,"x_max":0,"o":"m 433 758 l 251 707 l 251 67 l 433 67 l 463 92 l 463 733 m 601 122 l 479 0 l 113 0 l 113 1167 l 251 1167 l 251 763 l 479 838 l 601 703 "},"c":{"ha":694,"x_min":0,"x_max":0,"o":"m 574 67 l 574 0 l 306 0 l 176 121 l 176 703 l 306 824 l 574 824 l 574 757 l 338 757 l 315 732 l 315 92 l 338 67 "},"d":{"ha":694,"x_min":0,"x_max":0,"o":"m 592 0 l 453 0 l 453 90 l 251 -19 l 108 94 l 108 703 l 226 825 l 453 825 l 453 1167 l 592 1167 m 453 758 l 275 758 l 247 733 l 247 89 l 275 64 l 453 154 "},"e":{"ha":694,"x_min":0,"x_max":0,"o":"m 456 732 l 435 757 l 289 757 l 268 732 l 268 474 l 456 474 m 594 408 l 268 408 l 268 92 l 289 67 l 574 67 l 574 0 l 247 0 l 129 100 l 129 724 l 250 824 l 474 824 l 594 724 "},"f":{"ha":694,"x_min":0,"x_max":0,"o":"m 342 758 l 342 0 l 203 0 l 203 758 l 33 758 l 33 825 l 203 825 l 203 1044 l 321 1167 l 554 1167 l 554 1100 l 371 1100 l 342 1075 l 342 825 l 578 825 l 578 758 "},"g":{"ha":694,"x_min":0,"x_max":0,"o":"m 419 757 l 267 757 l 238 732 l 238 90 l 267 65 l 419 65 l 447 90 l 447 732 m 586 -154 l 432 -278 l 147 -278 l 147 -197 l 426 -197 l 447 -172 l 447 -1 l 221 -1 l 99 121 l 99 701 l 221 824 l 464 824 l 586 701 "},"h":{"ha":694,"x_min":0,"x_max":0,"o":"m 588 0 l 449 0 l 449 733 l 421 758 l 246 758 l 246 0 l 107 0 l 107 1167 l 246 1167 l 246 825 l 465 825 l 588 703 "},"i":{"ha":694,"x_min":0,"x_max":0,"o":"m 69 0 l 69 67 l 256 67 l 278 92 l 278 733 l 256 758 l 94 758 l 94 825 l 417 825 l 417 92 l 439 67 l 625 67 l 625 0 m 435 963 l 257 963 l 257 1154 l 435 1154 "},"j":{"ha":694,"x_min":0,"x_max":0,"o":"m 539 -181 l 413 -276 l 192 -276 l 75 -181 l 75 -90 l 204 -90 l 204 -185 l 226 -210 l 378 -210 l 400 -185 l 400 736 l 379 757 l 142 757 l 142 824 l 539 824 m 554 963 l 376 963 l 376 1154 l 554 1154 "},"k":{"ha":694,"x_min":0,"x_max":0,"o":"m 635 0 l 494 0 l 494 78 l 292 379 l 217 297 l 217 0 l 78 0 l 78 1167 l 217 1167 l 217 444 l 471 728 l 471 825 l 610 825 l 610 733 l 385 483 l 635 106 "},"l":{"ha":694,"x_min":0,"x_max":0,"o":"m 632 0 l 76 0 l 76 67 l 263 67 l 285 92 l 285 1075 l 263 1100 l 101 1100 l 101 1167 l 424 1167 l 424 92 l 446 67 l 632 67 "},"m":{"ha":694,"x_min":0,"x_max":0,"o":"m 635 0 l 494 0 l 494 732 l 467 757 l 394 757 l 394 0 l 289 0 l 289 736 l 267 757 l 194 757 l 194 0 l 54 0 l 54 824 l 522 824 l 635 701 "},"n":{"ha":694,"x_min":0,"x_max":0,"o":"m 456 824 l 586 703 l 586 0 l 446 0 l 446 732 l 417 757 l 249 757 l 249 0 l 108 0 l 108 824 "},"o":{"ha":694,"x_min":0,"x_max":0,"o":"m 272 757 l 244 732 l 244 92 l 272 67 l 422 67 l 450 92 l 450 732 l 422 757 m 471 0 l 224 0 l 104 121 l 104 703 l 224 824 l 471 824 l 590 703 l 590 121 "},"p":{"ha":694,"x_min":0,"x_max":0,"o":"m 424 758 l 242 758 l 242 92 l 271 67 l 424 67 l 453 92 l 453 733 m 592 122 l 469 0 l 242 0 l 242 -276 l 103 -276 l 103 825 l 469 825 l 592 703 "},"q":{"ha":694,"x_min":0,"x_max":0,"o":"m 271 760 l 242 735 l 242 93 l 271 68 l 424 68 l 453 93 l 453 760 m 592 -275 l 453 -275 l 453 1 l 225 1 l 103 124 l 103 704 l 225 826 l 592 826 "},"r":{"ha":694,"x_min":0,"x_max":0,"o":"m 475 769 l 332 663 l 332 67 l 551 67 l 551 0 l 68 0 l 68 67 l 192 67 l 192 758 l 82 758 l 82 825 l 331 825 l 331 729 l 482 844 l 664 729 l 664 585 l 524 585 l 524 739 "},"s":{"ha":694,"x_min":0,"x_max":0,"o":"m 431 757 l 308 757 l 279 732 l 279 618 l 586 317 l 608 292 l 608 121 l 488 0 l 233 0 l 113 121 l 113 204 l 253 204 l 253 92 l 282 67 l 439 67 l 468 92 l 468 247 l 139 558 l 139 703 l 260 824 l 479 824 l 600 703 l 600 618 l 460 618 l 460 732 "},"t":{"ha":694,"x_min":0,"x_max":0,"o":"m 324 92 l 353 67 l 578 67 l 578 0 l 307 0 l 183 121 l 183 757 l 33 757 l 33 824 l 183 824 l 183 1039 l 324 1039 l 324 824 l 578 824 l 578 757 l 324 757 "},"u":{"ha":694,"x_min":0,"x_max":0,"o":"m 475 0 l 231 0 l 108 121 l 108 824 l 247 824 l 247 92 l 276 67 l 429 67 l 458 92 l 458 824 l 597 824 l 597 121 "},"v":{"ha":694,"x_min":0,"x_max":0,"o":"m 467 0 l 222 0 l 56 746 l 53 824 l 201 824 l 201 746 l 339 67 l 368 67 l 496 746 l 496 824 l 642 824 l 642 746 "},"w":{"ha":694,"x_min":0,"x_max":0,"o":"m 658 746 l 542 0 l 378 0 l 338 318 l 276 0 l 133 0 l 25 746 l 25 824 l 163 824 l 163 746 l 238 113 l 307 556 l 282 746 l 282 824 l 381 824 l 381 746 l 449 128 l 521 746 l 521 824 l 658 824 "},"x":{"ha":694,"x_min":0,"x_max":0,"o":"m 639 0 l 488 0 l 488 64 l 357 286 l 313 286 l 182 64 l 182 0 l 58 0 l 58 67 l 275 410 l 275 428 l 81 746 l 81 824 l 233 824 l 233 746 l 342 549 l 383 549 l 492 746 l 492 824 l 617 824 l 617 746 l 422 428 l 422 410 l 639 67 "},"y":{"ha":694,"x_min":0,"x_max":0,"o":"m 476 0 l 419 -276 l 285 -276 l 349 0 l 244 0 l 61 746 l 58 824 l 200 824 l 200 746 l 354 67 l 376 67 l 490 746 l 490 824 l 631 824 l 631 746 "},"z":{"ha":694,"x_min":0,"x_max":0,"o":"m 593 0 l 82 0 l 82 67 l 433 757 l 117 757 l 117 824 l 583 824 l 583 757 l 585 757 l 240 67 l 593 67 "}," ":{"ha":694,"x_min":0,"x_max":0,"o":""},"¡":{"ha":694,"x_min":0,"x_max":0,"o":"m 294 546 l 400 546 l 447 -131 l 447 -274 l 247 -274 l 247 -131 m 447 824 l 447 633 l 247 633 l 247 824 "},"¢":{"ha":694,"x_min":0,"x_max":0,"o":"m 433 0 l 433 -136 l 378 -136 l 378 0 l 224 0 l 93 121 l 93 738 l 224 858 l 378 858 l 378 994 l 433 994 l 433 858 l 603 858 l 603 792 l 433 792 l 433 67 l 603 67 l 603 0 m 378 67 l 378 792 l 258 792 l 236 767 l 236 92 l 258 67 "},"£":{"ha":694,"x_min":0,"x_max":0,"o":"m 631 3 l 182 3 l 182 332 l 57 332 l 57 388 l 182 388 l 182 457 l 83 457 l 83 513 l 182 513 l 182 825 l 307 946 l 485 946 l 604 825 l 604 742 l 464 742 l 464 854 l 436 879 l 356 879 l 328 854 l 328 513 l 544 513 l 544 457 l 328 457 l 328 388 l 518 388 l 518 332 l 328 332 l 328 89 l 631 89 "},"¤":{"ha":694,"x_min":0,"x_max":0,"o":"m 389 547 l 249 689 l 383 824 l 524 682 "},"¥":{"ha":694,"x_min":0,"x_max":0,"o":"m 419 308 l 419 0 l 274 0 l 274 308 l 64 308 l 64 364 l 274 364 l 274 403 l 257 433 l 64 433 l 64 489 l 228 489 l 18 878 l 18 944 l 160 944 l 160 878 l 340 546 l 374 546 l 554 878 l 554 944 l 676 944 l 676 878 l 472 489 l 628 489 l 628 433 l 443 433 l 419 389 l 419 364 l 628 364 l 628 308 "},"¨":{"ha":694,"x_min":0,"x_max":0,"o":"m 400 985 l 400 1158 l 535 1158 l 535 985 m 158 1158 l 293 1158 l 293 985 l 158 985 "},"«":{"ha":694,"x_min":0,"x_max":0,"o":"m 389 547 l 249 689 l 383 824 l 524 682 "},"¯":{"ha":694,"x_min":0,"x_max":0,"o":"m 126 1107 l 532 1107 l 532 1029 l 126 1029 "},"´":{"ha":694,"x_min":0,"x_max":0,"o":"m 321 1158 l 401 1158 l 426 1138 l 297 924 l 246 924 l 236 933 "},"·":{"ha":694,"x_min":0,"x_max":0,"o":"m 447 358 l 247 358 l 247 549 l 447 549 "},"¸":{"ha":694,"x_min":0,"x_max":0,"o":"m 404 -265 l 297 -265 l 253 -204 l 253 -178 l 307 -178 l 307 -218 l 322 -232 l 379 -232 l 394 -218 l 394 -100 l 379 -86 l 283 -86 l 283 -51 l 404 -51 l 467 -114 l 467 -204 "},"»":{"ha":694,"x_min":0,"x_max":0,"o":"m 389 547 l 249 689 l 383 824 l 524 682 "},"¿":{"ha":694,"x_min":0,"x_max":0,"o":"m 389 547 l 249 689 l 383 824 l 524 682 "},"À":{"ha":694,"x_min":0,"x_max":0,"o":"m 676 0 l 532 0 l 532 67 l 468 390 l 203 390 l 139 67 l 139 0 l 8 0 l 8 67 l 210 1097 l 474 1097 l 676 67 m 344 1017 l 326 1017 l 219 474 l 451 474 m 367 1176 l 357 1167 l 306 1167 l 176 1381 l 201 1401 l 282 1401 "},"Á":{"ha":694,"x_min":0,"x_max":0,"o":"m 676 0 l 532 0 l 532 67 l 468 390 l 203 390 l 139 67 l 139 0 l 8 0 l 8 67 l 210 1097 l 474 1097 l 676 67 m 344 1017 l 326 1017 l 219 474 l 451 474 m 393 1417 l 474 1417 l 499 1396 l 369 1182 l 318 1182 l 308 1192 "},"Â":{"ha":694,"x_min":0,"x_max":0,"o":"m 676 0 l 532 0 l 532 67 l 468 390 l 203 390 l 139 67 l 139 0 l 8 0 l 8 67 l 210 1097 l 474 1097 l 676 67 m 344 1017 l 326 1017 l 219 474 l 451 474 m 332 1299 l 233 1150 l 189 1150 l 179 1160 l 292 1390 l 372 1390 l 485 1160 l 475 1150 l 431 1150 "},"Æ":{"ha":694,"x_min":0,"x_max":0,"o":"m 500 606 l 658 606 l 658 522 l 500 522 l 500 83 l 692 83 l 692 0 l 350 0 l 350 319 l 165 319 l 118 135 l 118 0 l 26 0 l 26 135 l 269 1097 l 692 1097 l 692 1014 l 500 1014 m 350 1024 l 343 1024 l 189 417 l 350 417 "},"Ç":{"ha":694,"x_min":0,"x_max":0,"o":"m 408 -265 l 301 -265 l 257 -204 l 257 -178 l 311 -178 l 311 -218 l 326 -232 l 383 -232 l 399 -218 l 399 -100 l 383 -86 l 288 -86 l 288 -51 l 408 -53 l 471 -114 l 471 -204 m 221 989 l 221 108 l 249 83 l 538 83 l 538 0 l 200 0 l 71 121 l 71 976 l 200 1097 l 538 1097 l 538 1014 l 249 1014 "},"È":{"ha":694,"x_min":0,"x_max":0,"o":"m 608 0 l 78 0 l 78 1097 l 594 1097 l 594 1014 l 228 1014 l 228 606 l 560 606 l 560 522 l 228 522 l 228 83 l 608 83 m 269 1429 l 388 1213 l 354 1181 l 325 1181 l 153 1354 l 233 1429 "},"É":{"ha":694,"x_min":0,"x_max":0,"o":"m 608 0 l 78 0 l 78 1097 l 594 1097 l 594 1014 l 228 1014 l 228 606 l 560 606 l 560 522 l 228 522 l 228 83 l 608 83 m 429 1429 l 510 1354 l 338 1181 l 308 1181 l 275 1213 l 393 1429 "},"Ì":{"ha":694,"x_min":0,"x_max":0,"o":"m 450 83 l 589 83 l 589 0 l 106 0 l 106 83 l 244 83 l 272 114 l 272 983 l 244 1014 l 106 1014 l 106 1097 l 589 1097 l 589 1014 l 450 1014 l 422 983 l 422 114 m 131 1314 l 167 1368 l 418 1203 l 383 1151 "},"Í":{"ha":694,"x_min":0,"x_max":0,"o":"m 450 83 l 589 83 l 589 0 l 106 0 l 106 83 l 244 83 l 272 114 l 272 983 l 244 1014 l 106 1014 l 106 1097 l 589 1097 l 589 1014 l 450 1014 l 422 983 l 422 114 m 283 1203 l 535 1368 l 571 1314 l 318 1151 "},"Ó":{"ha":694,"x_min":0,"x_max":0,"o":"m 249 1014 l 221 989 l 221 108 l 249 83 l 444 83 l 472 108 l 472 989 l 444 1014 m 493 0 l 200 0 l 71 121 l 71 976 l 200 1097 l 493 1097 l 622 976 l 622 121 m 551 1314 l 299 1151 l 264 1203 l 515 1368 "},"Þ":{"ha":694,"x_min":0,"x_max":0,"o":"m 468 808 l 207 808 l 207 306 l 468 306 l 496 331 l 496 783 m 646 347 l 517 226 l 207 226 l 207 0 l 57 0 l 57 1097 l 207 1097 l 207 892 l 517 892 l 646 771 "},"à":{"ha":694,"x_min":0,"x_max":0,"o":"m 447 372 l 247 372 l 206 235 l 206 204 l 247 67 l 447 67 m 586 0 l 183 0 l 75 194 l 75 244 l 183 439 l 447 439 l 447 732 l 425 757 l 213 757 l 213 824 l 481 824 l 586 714 m 396 943 l 344 943 l 215 1157 l 240 1178 l 321 1178 l 406 953 "},"á":{"ha":694,"x_min":0,"x_max":0,"o":"m 447 372 l 247 372 l 206 235 l 206 204 l 247 67 l 447 67 m 586 0 l 183 0 l 75 194 l 75 244 l 183 439 l 447 439 l 447 732 l 425 757 l 213 757 l 213 824 l 481 824 l 586 714 m 431 1178 l 511 1178 l 536 1157 l 407 943 l 356 943 l 346 953 "},"â":{"ha":694,"x_min":0,"x_max":0,"o":"m 447 372 l 247 372 l 206 235 l 206 204 l 247 67 l 447 67 m 586 0 l 183 0 l 75 194 l 75 244 l 183 439 l 447 439 l 447 732 l 425 757 l 213 757 l 213 824 l 481 824 l 586 714 m 383 1093 l 368 1093 l 290 939 l 246 939 l 236 949 l 339 1178 l 413 1178 l 515 949 l 506 939 l 461 939 "},"ä":{"ha":694,"x_min":0,"x_max":0,"o":"m 447 372 l 247 372 l 206 235 l 206 204 l 247 67 l 447 67 m 586 0 l 183 0 l 75 194 l 75 244 l 183 439 l 447 439 l 447 732 l 425 757 l 213 757 l 213 824 l 481 824 l 586 714 m 426 1004 l 426 1178 l 561 1178 l 561 1004 m 185 1178 l 319 1178 l 319 1004 l 185 1004 "},"æ":{"ha":694,"x_min":0,"x_max":0,"o":"m 194 372 l 175 235 l 175 204 l 194 67 l 279 67 l 279 372 m 493 757 l 439 757 l 418 732 l 418 438 l 514 438 l 514 732 m 418 372 l 418 92 l 439 67 l 632 67 l 632 0 l 138 0 l 50 194 l 50 244 l 138 439 l 279 439 l 279 732 l 257 757 l 119 757 l 119 824 l 313 824 l 351 767 l 400 824 l 532 824 l 639 724 l 639 372 "},"ç":{"ha":694,"x_min":0,"x_max":0,"o":"m 485 -276 l 378 -276 l 333 -215 l 333 -189 l 388 -189 l 388 -229 l 403 -243 l 460 -243 l 475 -229 l 475 -111 l 460 -97 l 364 -97 l 364 -62 l 485 -62 l 547 -125 l 547 -215 m 574 67 l 574 0 l 306 0 l 176 121 l 176 703 l 306 824 l 574 824 l 574 757 l 338 757 l 315 732 l 315 92 l 338 67 "},"è":{"ha":694,"x_min":0,"x_max":0,"o":"m 456 732 l 435 757 l 289 757 l 268 732 l 268 474 l 456 474 m 594 408 l 268 408 l 268 92 l 289 67 l 574 67 l 574 0 l 247 0 l 129 100 l 129 724 l 250 824 l 474 824 l 594 724 m 382 943 l 331 943 l 201 1157 l 226 1178 l 307 1178 l 392 953 "},"é":{"ha":694,"x_min":0,"x_max":0,"o":"m 456 732 l 435 757 l 289 757 l 268 732 l 268 474 l 456 474 m 594 408 l 268 408 l 268 92 l 289 67 l 574 67 l 574 0 l 247 0 l 129 100 l 129 724 l 250 824 l 474 824 l 594 724 m 417 1178 l 497 1178 l 522 1157 l 393 943 l 342 943 l 332 953 "},"ê":{"ha":694,"x_min":0,"x_max":0,"o":"m 456 732 l 435 757 l 289 757 l 268 732 l 268 474 l 456 474 m 594 408 l 268 408 l 268 92 l 289 67 l 574 67 l 574 0 l 247 0 l 129 100 l 129 724 l 250 824 l 474 824 l 594 724 m 369 1093 l 354 1093 l 276 939 l 232 939 l 222 949 l 325 1178 l 399 1178 l 501 949 l 492 939 l 447 939 "},"ë":{"ha":694,"x_min":0,"x_max":0,"o":"m 456 732 l 435 757 l 289 757 l 268 732 l 268 474 l 456 474 m 594 408 l 268 408 l 268 92 l 289 67 l 574 67 l 574 0 l 247 0 l 129 100 l 129 724 l 250 824 l 474 824 l 594 724 m 413 1004 l 413 1178 l 547 1178 l 547 1004 m 171 1178 l 306 1178 l 306 1004 l 171 1004 "},"ì":{"ha":694,"x_min":0,"x_max":0,"o":"m 69 0 l 69 67 l 256 67 l 278 92 l 278 733 l 256 758 l 94 758 l 94 825 l 417 825 l 417 92 l 439 67 l 625 67 l 625 0 m 338 943 l 286 943 l 157 1157 l 182 1178 l 263 1178 l 347 953 "},"í":{"ha":694,"x_min":0,"x_max":0,"o":"m 69 0 l 69 67 l 256 67 l 278 92 l 278 733 l 256 758 l 94 758 l 94 825 l 417 825 l 417 92 l 439 67 l 625 67 l 625 0 m 372 1178 l 453 1178 l 478 1157 l 349 943 l 297 943 l 288 953 "},"î":{"ha":694,"x_min":0,"x_max":0,"o":"m 69 0 l 69 67 l 256 67 l 278 92 l 278 733 l 256 758 l 94 758 l 94 825 l 417 825 l 417 92 l 439 67 l 625 67 l 625 0 m 325 1093 l 310 1093 l 232 939 l 188 939 l 178 949 l 281 1178 l 354 1178 l 457 949 l 447 939 l 403 939 "},"ï":{"ha":694,"x_min":0,"x_max":0,"o":"m 69 0 l 69 67 l 256 67 l 278 92 l 278 733 l 256 758 l 94 758 l 94 825 l 417 825 l 417 92 l 439 67 l 625 67 l 625 0 m 368 1004 l 368 1178 l 503 1178 l 503 1004 m 126 1178 l 261 1178 l 261 1004 l 126 1004 "},"ò":{"ha":694,"x_min":0,"x_max":0,"o":"m 272 757 l 244 732 l 244 92 l 272 67 l 422 67 l 450 92 l 450 732 l 422 757 m 471 0 l 224 0 l 104 121 l 104 703 l 224 824 l 471 824 l 590 703 l 590 121 m 363 899 l 311 899 l 182 1113 l 207 1133 l 288 1133 l 372 908 "},"ó":{"ha":694,"x_min":0,"x_max":0,"o":"m 272 757 l 244 732 l 244 92 l 272 67 l 422 67 l 450 92 l 450 732 l 422 757 m 471 0 l 224 0 l 104 121 l 104 703 l 224 824 l 471 824 l 590 703 l 590 121 m 397 1133 l 478 1133 l 503 1113 l 374 899 l 322 899 l 313 908 "},"ô":{"ha":694,"x_min":0,"x_max":0,"o":"m 272 757 l 244 732 l 244 92 l 272 67 l 422 67 l 450 92 l 450 732 l 422 757 m 471 0 l 224 0 l 104 121 l 104 703 l 224 824 l 471 824 l 590 703 l 590 121 m 350 1049 l 335 1049 l 257 894 l 213 894 l 203 904 l 306 1133 l 379 1133 l 482 904 l 472 894 l 428 894 "},"ö":{"ha":694,"x_min":0,"x_max":0,"o":"m 272 757 l 244 732 l 244 92 l 272 67 l 422 67 l 450 92 l 450 732 l 422 757 m 471 0 l 224 0 l 104 121 l 104 703 l 224 824 l 471 824 l 590 703 l 590 121 m 393 960 l 393 1133 l 528 1133 l 528 960 m 151 1133 l 286 1133 l 286 960 l 151 960 "},"ù":{"ha":694,"x_min":0,"x_max":0,"o":"m 475 0 l 231 0 l 108 121 l 108 824 l 247 824 l 247 92 l 276 67 l 429 67 l 458 92 l 458 824 l 597 824 l 597 121 m 367 943 l 315 943 l 186 1157 l 211 1178 l 292 1178 l 376 953 "},"ú":{"ha":694,"x_min":0,"x_max":0,"o":"m 475 0 l 231 0 l 108 121 l 108 824 l 247 824 l 247 92 l 276 67 l 429 67 l 458 92 l 458 824 l 597 824 l 597 121 m 401 1178 l 482 1178 l 507 1157 l 378 943 l 326 943 l 317 953 "},"û":{"ha":694,"x_min":0,"x_max":0,"o":"m 475 0 l 231 0 l 108 121 l 108 824 l 247 824 l 247 92 l 276 67 l 429 67 l 458 92 l 458 824 l 597 824 l 597 121 m 354 1093 l 339 1093 l 261 939 l 217 939 l 207 949 l 310 1178 l 383 1178 l 486 949 l 476 939 l 432 939 "},"ü":{"ha":694,"x_min":0,"x_max":0,"o":"m 475 0 l 231 0 l 108 121 l 108 824 l 247 824 l 247 92 l 276 67 l 429 67 l 458 92 l 458 824 l 597 824 l 597 121 m 397 1004 l 397 1178 l 532 1178 l 532 1004 m 156 1178 l 290 1178 l 290 1004 l 156 1004 "},"ý":{"ha":694,"x_min":0,"x_max":0,"o":"m 476 0 l 419 -276 l 285 -276 l 349 0 l 244 0 l 61 746 l 58 824 l 200 824 l 200 746 l 354 67 l 376 67 l 490 746 l 490 824 l 631 824 l 631 746 m 424 1178 l 504 1178 l 529 1157 l 400 943 l 349 943 l 339 953 "},"þ":{"ha":694,"x_min":0,"x_max":0,"o":"m 424 67 l 453 92 l 453 733 l 424 758 l 244 758 l 244 89 l 271 67 m 242 -276 l 106 -276 l 106 1167 l 244 1167 l 244 825 l 469 825 l 592 703 l 592 122 l 469 0 l 242 0 "},"ā":{"ha":694,"x_min":0,"x_max":0,"o":"m 447 372 l 247 372 l 206 235 l 206 204 l 247 67 l 447 67 m 586 0 l 183 0 l 75 194 l 75 244 l 183 439 l 447 439 l 447 732 l 425 757 l 213 757 l 213 824 l 481 824 l 586 714 m 174 1126 l 579 1126 l 579 1049 l 174 1049 "},"Ă":{"ha":694,"x_min":0,"x_max":0,"o":"m 676 0 l 532 0 l 532 67 l 468 390 l 203 390 l 139 67 l 139 0 l 8 0 l 8 67 l 211 1097 l 474 1097 l 676 67 m 344 1017 l 326 1017 l 219 474 l 451 474 m 183 1244 l 183 1281 l 256 1281 l 256 1231 l 271 1217 l 404 1217 l 419 1231 l 419 1282 l 492 1282 l 492 1244 l 429 1190 l 246 1190 "},"ă":{"ha":694,"x_min":0,"x_max":0,"o":"m 447 372 l 247 372 l 206 235 l 206 204 l 247 67 l 447 67 m 586 0 l 183 0 l 75 194 l 75 244 l 183 439 l 447 439 l 447 732 l 425 757 l 213 757 l 213 824 l 481 824 l 586 714 m 463 917 l 279 917 l 217 971 l 217 1007 l 289 1007 l 289 957 l 304 943 l 438 943 l 453 957 l 453 1008 l 525 1008 l 525 971 "},"Ć":{"ha":694,"x_min":0,"x_max":0,"o":"m 221 989 l 221 108 l 249 83 l 538 83 l 538 0 l 200 0 l 71 121 l 71 976 l 200 1097 l 538 1097 l 538 1014 l 249 1014 m 417 1417 l 497 1417 l 522 1396 l 393 1182 l 342 1182 l 332 1192 "},"ć":{"ha":694,"x_min":0,"x_max":0,"o":"m 574 67 l 574 0 l 306 0 l 176 121 l 176 703 l 306 824 l 574 824 l 574 757 l 338 757 l 315 732 l 315 92 l 338 67 m 439 1178 l 519 1178 l 544 1157 l 415 943 l 364 943 l 354 953 "},"Ĉ":{"ha":694,"x_min":0,"x_max":0,"o":"m 221 989 l 221 108 l 249 83 l 538 83 l 538 0 l 200 0 l 71 121 l 71 976 l 200 1097 l 538 1097 l 538 1014 l 249 1014 m 356 1299 l 257 1150 l 213 1150 l 203 1160 l 315 1390 l 396 1390 l 508 1160 l 499 1150 l 454 1150 "},"ĉ":{"ha":694,"x_min":0,"x_max":0,"o":"m 574 67 l 574 0 l 306 0 l 176 121 l 176 703 l 306 824 l 574 824 l 574 757 l 338 757 l 315 732 l 315 92 l 338 67 m 392 1093 l 376 1093 l 299 939 l 254 939 l 244 949 l 347 1178 l 421 1178 l 524 949 l 514 939 l 469 939 "},"ċ":{"ha":694,"x_min":0,"x_max":0,"o":"m 574 67 l 574 0 l 306 0 l 176 121 l 176 703 l 306 824 l 574 824 l 574 757 l 338 757 l 315 732 l 315 92 l 338 67 m 289 1183 l 471 1183 l 471 992 l 289 992 "},"č":{"ha":694,"x_min":0,"x_max":0,"o":"m 574 67 l 574 0 l 306 0 l 176 121 l 176 703 l 306 824 l 574 824 l 574 757 l 338 757 l 315 732 l 315 92 l 338 67 m 244 1168 l 254 1178 l 299 1178 l 376 1024 l 392 1024 l 469 1178 l 514 1178 l 524 1168 l 421 939 l 347 939 "},"ē":{"ha":694,"x_min":0,"x_max":0,"o":"m 456 732 l 435 757 l 289 757 l 268 732 l 268 474 l 456 474 m 594 408 l 268 408 l 268 92 l 289 67 l 574 67 l 574 0 l 247 0 l 129 100 l 129 724 l 250 824 l 474 824 l 594 724 m 160 1126 l 565 1126 l 565 1049 l 160 1049 "},"ė":{"ha":694,"x_min":0,"x_max":0,"o":"m 456 732 l 435 757 l 289 757 l 268 732 l 268 474 l 456 474 m 594 408 l 268 408 l 268 92 l 289 67 l 574 67 l 574 0 l 247 0 l 129 100 l 129 724 l 250 824 l 474 824 l 594 724 m 267 1183 l 449 1183 l 449 992 l 267 992 "},"ě":{"ha":694,"x_min":0,"x_max":0,"o":"m 456 732 l 435 757 l 289 757 l 268 732 l 268 474 l 456 474 m 594 408 l 268 408 l 268 92 l 289 67 l 574 67 l 574 0 l 247 0 l 129 100 l 129 724 l 250 824 l 474 824 l 594 724 m 222 1168 l 232 1178 l 276 1178 l 354 1024 l 369 1024 l 447 1178 l 492 1178 l 501 1168 l 399 939 l 325 939 "},"ĝ":{"ha":694,"x_min":0,"x_max":0,"o":"m 419 757 l 267 757 l 238 732 l 238 90 l 267 65 l 419 65 l 447 90 l 447 732 m 586 -154 l 432 -278 l 147 -278 l 147 -197 l 426 -197 l 447 -172 l 447 -1 l 221 -1 l 99 121 l 99 701 l 221 824 l 464 824 l 586 701 m 350 1093 l 335 1093 l 257 939 l 213 939 l 203 949 l 306 1178 l 379 1178 l 482 949 l 472 939 l 428 939 "},"ı":{"ha":694,"x_min":0,"x_max":0,"o":"m 69 0 l 69 67 l 256 67 l 278 92 l 278 733 l 256 758 l 94 758 l 94 825 l 417 825 l 417 92 l 439 67 l 625 67 l 625 0 "},"ĵ":{"ha":694,"x_min":0,"x_max":0,"o":"m 529 -181 l 413 -276 l 192 -276 l 75 -181 l 75 -90 l 204 -90 l 204 -185 l 226 -210 l 378 -210 l 400 -185 l 400 736 l 379 757 l 142 757 l 142 824 l 529 824 m 394 1093 l 379 1093 l 301 939 l 257 939 l 247 949 l 350 1178 l 424 1178 l 526 949 l 517 939 l 472 939 "},"Ŀ":{"ha":694,"x_min":0,"x_max":0,"o":"m 606 501 l 406 501 l 406 692 l 606 692 m 617 0 l 100 0 l 100 1097 l 250 1097 l 250 97 l 617 97 "},"ń":{"ha":694,"x_min":0,"x_max":0,"o":"m 456 824 l 586 703 l 586 0 l 446 0 l 446 732 l 417 757 l 249 757 l 249 0 l 108 0 l 108 824 m 400 1178 l 481 1178 l 506 1157 l 376 943 l 325 943 l 315 953 "},"ň":{"ha":694,"x_min":0,"x_max":0,"o":"m 456 824 l 586 703 l 586 0 l 446 0 l 446 732 l 417 757 l 249 757 l 249 0 l 108 0 l 108 824 m 206 1168 l 215 1178 l 260 1178 l 338 1024 l 353 1024 l 431 1178 l 475 1178 l 485 1168 l 382 939 l 308 939 "},"ō":{"ha":694,"x_min":0,"x_max":0,"o":"m 272 757 l 244 732 l 244 92 l 272 67 l 422 67 l 450 92 l 450 732 l 422 757 m 471 0 l 224 0 l 104 121 l 104 703 l 224 824 l 471 824 l 590 703 l 590 121 m 140 1082 l 546 1082 l 546 1004 l 140 1004 "},"ő":{"ha":694,"x_min":0,"x_max":0,"o":"m 272 757 l 244 732 l 244 92 l 272 67 l 422 67 l 450 92 l 450 732 l 422 757 m 471 0 l 224 0 l 104 121 l 104 703 l 224 824 l 471 824 l 590 703 l 590 121 m 429 908 l 507 1133 l 581 1133 l 606 1113 l 483 899 l 439 899 m 299 1133 l 372 1133 l 397 1113 l 275 899 l 231 899 l 221 908 "},"Œ":{"ha":694,"x_min":0,"x_max":0,"o":"m 293 1014 l 192 1014 l 164 989 l 164 108 l 192 83 l 293 83 l 321 108 l 321 989 m 685 0 l 143 0 l 14 121 l 14 976 l 143 1097 l 671 1097 l 671 1014 l 471 1014 l 471 606 l 636 606 l 636 522 l 471 522 l 471 83 l 685 83 "},"œ":{"ha":694,"x_min":0,"x_max":0,"o":"m 678 408 l 431 408 l 431 92 l 451 67 l 657 67 l 657 0 l 410 0 l 357 46 l 313 0 l 138 0 l 19 121 l 19 703 l 138 824 l 313 824 l 358 778 l 413 824 l 557 824 l 678 724 m 264 757 l 186 757 l 158 732 l 158 92 l 186 67 l 264 67 l 292 92 l 292 732 m 539 732 l 518 757 l 451 757 l 431 732 l 431 474 l 539 474 "},"ŕ":{"ha":694,"x_min":0,"x_max":0,"o":"m 475 769 l 332 663 l 332 67 l 551 67 l 551 0 l 68 0 l 68 67 l 192 67 l 192 758 l 82 758 l 82 825 l 331 825 l 331 729 l 482 844 l 664 729 l 664 585 l 524 585 l 524 739 m 374 1158 l 454 1158 l 479 1138 l 350 924 l 299 924 l 289 933 "},"ř":{"ha":694,"x_min":0,"x_max":0,"o":"m 475 769 l 332 663 l 332 67 l 551 67 l 551 0 l 68 0 l 68 67 l 192 67 l 192 758 l 82 758 l 82 825 l 331 825 l 331 729 l 482 844 l 664 729 l 664 585 l 524 585 l 524 739 m 279 1168 l 289 1178 l 333 1178 l 411 1024 l 426 1024 l 504 1178 l 549 1178 l 558 1168 l 456 939 l 382 939 "},"ś":{"ha":694,"x_min":0,"x_max":0,"o":"m 431 757 l 308 757 l 279 732 l 279 618 l 586 317 l 608 292 l 608 121 l 488 0 l 233 0 l 113 121 l 113 204 l 253 204 l 253 92 l 282 67 l 439 67 l 468 92 l 468 247 l 139 558 l 139 703 l 260 824 l 479 824 l 600 703 l 600 618 l 460 618 l 460 732 m 429 1178 l 510 1178 l 535 1157 l 406 943 l 354 943 l 344 953 "},"ŝ":{"ha":694,"x_min":0,"x_max":0,"o":"m 431 757 l 308 757 l 279 732 l 279 618 l 586 317 l 608 292 l 608 121 l 488 0 l 233 0 l 113 121 l 113 204 l 253 204 l 253 92 l 282 67 l 439 67 l 468 92 l 468 247 l 139 558 l 139 703 l 260 824 l 479 824 l 600 703 l 600 618 l 460 618 l 460 732 m 382 1093 l 367 1093 l 289 939 l 244 939 l 235 949 l 338 1178 l 411 1178 l 514 949 l 504 939 l 460 939 "},"ş":{"ha":694,"x_min":0,"x_max":0,"o":"m 414 -276 l 307 -276 l 263 -215 l 263 -189 l 317 -189 l 317 -229 l 332 -243 l 389 -243 l 404 -229 l 404 -111 l 389 -97 l 293 -97 l 293 -62 l 414 -62 l 476 -125 l 476 -215 m 431 757 l 308 757 l 279 732 l 279 618 l 586 317 l 608 292 l 608 121 l 488 0 l 233 0 l 113 121 l 113 204 l 253 204 l 253 92 l 282 67 l 439 67 l 468 92 l 468 247 l 139 558 l 139 703 l 260 824 l 479 824 l 600 703 l 600 618 l 460 618 l 460 732 "},"š":{"ha":694,"x_min":0,"x_max":0,"o":"m 431 757 l 308 757 l 279 732 l 279 618 l 586 317 l 608 292 l 608 121 l 488 0 l 233 0 l 113 121 l 113 204 l 253 204 l 253 92 l 282 67 l 439 67 l 468 92 l 468 247 l 139 558 l 139 703 l 260 824 l 479 824 l 600 703 l 600 618 l 460 618 l 460 732 m 235 1168 l 244 1178 l 289 1178 l 367 1024 l 382 1024 l 460 1178 l 504 1178 l 514 1168 l 411 939 l 338 939 "},"ū":{"ha":694,"x_min":0,"x_max":0,"o":"m 475 0 l 231 0 l 108 121 l 108 824 l 247 824 l 247 92 l 276 67 l 429 67 l 458 92 l 458 824 l 597 824 l 597 121 m 144 1126 l 550 1126 l 550 1049 l 144 1049 "},"ű":{"ha":694,"x_min":0,"x_max":0,"o":"m 475 0 l 231 0 l 108 121 l 108 824 l 247 824 l 247 92 l 276 67 l 429 67 l 458 92 l 458 824 l 597 824 l 597 121 m 433 953 l 511 1178 l 585 1178 l 610 1157 l 488 943 l 443 943 m 303 1178 l 376 1178 l 401 1157 l 279 943 l 235 943 l 225 953 "},"ŵ":{"ha":694,"x_min":0,"x_max":0,"o":"m 658 746 l 542 0 l 378 0 l 338 318 l 276 0 l 133 0 l 25 746 l 25 824 l 163 824 l 163 746 l 238 113 l 307 556 l 282 746 l 282 824 l 381 824 l 381 746 l 449 128 l 521 746 l 521 824 l 658 824 m 339 1093 l 324 1093 l 246 939 l 201 939 l 192 949 l 294 1178 l 368 1178 l 471 949 l 461 939 l 417 939 "},"ŷ":{"ha":694,"x_min":0,"x_max":0,"o":"m 476 0 l 419 -276 l 285 -276 l 349 0 l 244 0 l 61 746 l 58 824 l 200 824 l 200 746 l 354 67 l 376 67 l 490 746 l 490 824 l 631 824 l 631 746 m 376 1093 l 361 1093 l 283 939 l 239 939 l 229 949 l 332 1178 l 406 1178 l 508 949 l 499 939 l 454 939 "},"ź":{"ha":694,"x_min":0,"x_max":0,"o":"m 593 0 l 82 0 l 82 67 l 433 757 l 117 757 l 117 824 l 583 824 l 583 757 l 585 757 l 240 67 l 593 67 m 404 1178 l 485 1178 l 510 1157 l 381 943 l 329 943 l 319 953 "},"ż":{"ha":694,"x_min":0,"x_max":0,"o":"m 593 0 l 82 0 l 82 67 l 433 757 l 117 757 l 117 824 l 583 824 l 583 757 l 585 757 l 240 67 l 593 67 m 254 1183 l 436 1183 l 436 992 l 254 992 "},"ž":{"ha":694,"x_min":0,"x_max":0,"o":"m 593 0 l 82 0 l 82 67 l 433 757 l 117 757 l 117 824 l 583 824 l 583 757 l 585 757 l 240 67 l 593 67 m 210 1168 l 219 1178 l 264 1178 l 342 1024 l 357 1024 l 435 1178 l 479 1178 l 489 1168 l 386 939 l 313 939 "},"ȷ":{"ha":694,"x_min":0,"x_max":0,"o":"m 529 -181 l 413 -276 l 192 -276 l 75 -181 l 75 -90 l 204 -90 l 204 -185 l 226 -210 l 378 -210 l 400 -185 l 400 736 l 379 757 l 142 757 l 142 824 l 529 824 "},"Ƀ":{"ha":694,"x_min":0,"x_max":0,"o":"m 664 121 l 535 0 l 96 0 l 96 269 l 11 269 l 11 350 l 96 350 l 96 1097 l 501 1097 l 631 976 l 631 656 l 560 590 l 664 493 m 453 614 l 481 639 l 481 989 l 453 1014 l 246 1014 l 246 614 m 486 535 l 246 535 l 246 350 l 378 350 l 378 269 l 246 269 l 246 83 l 486 83 l 514 108 l 514 510 "},"ˆ":{"ha":694,"x_min":0,"x_max":0,"o":"m 357 1074 l 342 1074 l 264 919 l 219 919 l 210 929 l 313 1158 l 386 1158 l 489 929 l 479 919 l 435 919 "},"ˇ":{"ha":694,"x_min":0,"x_max":0,"o":"m 210 1149 l 219 1158 l 264 1158 l 342 1004 l 357 1004 l 435 1158 l 479 1158 l 489 1149 l 386 919 l 313 919 "},"˘":{"ha":694,"x_min":0,"x_max":0,"o":"m 417 917 l 233 917 l 171 971 l 171 1007 l 243 1007 l 243 957 l 258 943 l 392 943 l 407 957 l 407 1008 l 479 1008 l 479 971 "},"˙":{"ha":694,"x_min":0,"x_max":0,"o":"m 254 1164 l 436 1164 l 436 972 l 254 972 "},"˚":{"ha":694,"x_min":0,"x_max":0,"o":""},"˛":{"ha":694,"x_min":0,"x_max":0,"o":""},"˜":{"ha":694,"x_min":0,"x_max":0,"o":""},"˝":{"ha":694,"x_min":0,"x_max":0,"o":"m 379 933 l 457 1158 l 531 1158 l 556 1138 l 433 924 l 389 924 m 249 1158 l 322 1158 l 347 1138 l 225 924 l 181 924 l 171 933 "},"ẁ":{"ha":694,"x_min":0,"x_max":0,"o":"m 658 746 l 542 0 l 378 0 l 338 318 l 276 0 l 133 0 l 25 746 l 25 824 l 163 824 l 163 746 l 238 113 l 307 556 l 282 746 l 282 824 l 381 824 l 381 746 l 449 128 l 521 746 l 521 824 l 658 824 m 351 943 l 300 943 l 171 1157 l 196 1178 l 276 1178 l 361 953 "},"ẃ":{"ha":694,"x_min":0,"x_max":0,"o":"m 658 746 l 542 0 l 378 0 l 338 318 l 276 0 l 133 0 l 25 746 l 25 824 l 163 824 l 163 746 l 238 113 l 307 556 l 282 746 l 282 824 l 381 824 l 381 746 l 449 128 l 521 746 l 521 824 l 658 824 m 386 1178 l 467 1178 l 492 1157 l 363 943 l 311 943 l 301 953 "},"ỳ":{"ha":694,"x_min":0,"x_max":0,"o":"m 476 0 l 419 -276 l 285 -276 l 349 0 l 244 0 l 61 746 l 58 824 l 200 824 l 200 746 l 354 67 l 376 67 l 490 746 l 490 824 l 631 824 l 631 746 m 389 943 l 338 943 l 208 1157 l 233 1178 l 314 1178 l 399 953 "},"–":{"ha":694,"x_min":0,"x_max":0,"o":"m 563 367 l 132 367 l 132 443 l 563 443 "},"—":{"ha":694,"x_min":0,"x_max":0,"o":"m 660 367 l 35 367 l 35 443 l 660 443 "},"‘":{"ha":694,"x_min":0,"x_max":0,"o":"m 422 1047 b 286 926 329 1047 292 990 l 417 926 l 417 736 l 217 736 l 217 857 b 422 1103 217 986 243 1103 "},"’":{"ha":694,"x_min":0,"x_max":0,"o":"m 422 976 b 217 731 422 847 396 731 l 217 786 b 353 907 310 786 347 843 l 222 907 l 222 1097 l 422 1097 "},"‚":{"ha":694,"x_min":0,"x_max":0,"o":"m 447 69 b 242 -176 447 -60 421 -176 l 242 -121 b 378 0 335 -121 372 -64 l 247 0 l 247 190 l 447 190 "},"“":{"ha":694,"x_min":0,"x_max":0,"o":"m 76 860 b 282 1106 76 989 103 1106 l 282 1050 b 146 929 189 1050 151 993 l 276 929 l 276 739 l 76 739 m 596 1050 b 460 929 503 1050 465 993 l 590 929 l 590 739 l 390 739 l 390 860 b 596 1106 390 989 417 1106 "},"”":{"ha":694,"x_min":0,"x_max":0,"o":"m 282 1097 l 282 976 b 76 731 282 847 256 731 l 76 786 b 213 907 169 786 207 843 l 82 907 l 82 1097 m 596 976 b 390 731 596 847 569 731 l 390 786 b 526 907 483 786 521 843 l 396 907 l 396 1097 l 596 1097 "},"„":{"ha":694,"x_min":0,"x_max":0,"o":"m 282 190 l 282 69 b 76 -176 282 -60 256 -176 l 76 -121 b 213 0 169 -121 207 -64 l 82 0 l 82 190 m 596 69 b 390 -176 596 -60 569 -176 l 390 -121 b 526 0 483 -121 521 -64 l 396 0 l 396 190 l 596 190 "},"•":{"ha":694,"x_min":0,"x_max":0,"o":"m 560 413 b 346 199 560 294 464 199 b 133 413 229 199 133 294 b 346 625 133 529 229 625 b 560 413 464 625 560 529 "},"…":{"ha":694,"x_min":0,"x_max":0,"o":"m 156 0 l 46 0 l 46 160 l 156 160 m 403 0 l 292 0 l 292 160 l 403 160 m 646 0 l 536 0 l 536 160 l 646 160 "},"‰":{"ha":694,"x_min":0,"x_max":0,"o":"m 389 547 l 249 689 l 383 824 l 524 682 "},"‹":{"ha":694,"x_min":0,"x_max":0,"o":"m 389 547 l 249 689 l 383 824 l 524 682 "},"›":{"ha":694,"x_min":0,"x_max":0,"o":"m 389 547 l 249 689 l 383 824 l 524 682 "},"⁄":{"ha":694,"x_min":0,"x_max":0,"o":"m 261 418 l 318 418 l 156 0 l 51 0 m 406 526 l 349 526 l 511 944 l 615 944 "},"€":{"ha":694,"x_min":0,"x_max":0,"o":"m 568 1 l 256 1 l 126 122 l 126 383 l 31 383 l 31 453 l 126 453 l 126 524 l 49 524 l 49 593 l 126 593 l 126 825 l 256 946 l 568 946 l 568 874 l 300 874 l 272 849 l 272 593 l 454 593 l 454 524 l 272 524 l 272 453 l 436 453 l 436 383 l 272 383 l 272 99 l 300 74 l 568 74 "},"−":{"ha":694,"x_min":0,"x_max":0,"o":"m 625 425 l 69 425 l 69 501 l 625 501 "},"":{"ha":694,"x_min":0,"x_max":0,"o":""}}}
